{
    "asset" : {
        "generator" : "Khronos glTF Blender I/O v1.7.33",
        "version" : "2.0"
    },
    "scene" : 0,
    "scenes" : [
        {
            "name" : "Scene",
            "nodes" : [
                0,
                1,
                2
            ]
        }
    ],
    "nodes" : [
        {
            "mesh" : 0,
            "name" : "cadre.006",
            "rotation" : [
                0.5,
                -0.5,
                0.5,
                0.4999999701976776
            ],
            "scale" : [
                0.06685961782932281,
                0.06685961782932281,
                0.06685961782932281
            ],
            "translation" : [
                0,
                0,
                -0.006545186974108219
            ]
        },
        {
            "mesh" : 1,
            "name" : "toile.003",
            "rotation" : [
                0.7071068286895752,
                0,
                0,
                0.7071068286895752
            ],
            "scale" : [
                1.4474999904632568,
                1.070393681526184,
                1.2350000143051147
            ]
        },
        {
            "mesh" : 2,
            "name" : "fond.003",
            "rotation" : [
                0.7071068286895752,
                0,
                0,
                0.7071068286895752
            ],
            "scale" : [
                1.4474999904632568,
                1.0503857135772705,
                1.2350000143051147
            ],
            "translation" : [
                0,
                0,
                -0.005601911339908838
            ]
        }
    ],
    "materials" : [
        {
            "doubleSided" : true,
            "name" : "gold.010",
            "pbrMetallicRoughness" : {
                "baseColorFactor" : [
                    0.8000000715255737,
                    0.3399905860424042,
                    0.037082284688949585,
                    1
                ],
                "metallicFactor" : 0.800000011920929,
                "roughnessFactor" : 0.3777777850627899
            }
        },
        {
            "doubleSided" : true,
            "name" : "cri.001",
            "pbrMetallicRoughness" : {
                "baseColorTexture" : {
                    "index" : 0
                },
                "metallicFactor" : 0,
                "roughnessFactor" : 0.5
            }
        },
        {
            "doubleSided" : true,
            "name" : "toile.005",
            "pbrMetallicRoughness" : {
                "baseColorTexture" : {
                    "index" : 1
                },
                "metallicFactor" : 0,
                "roughnessFactor" : 0.5
            }
        }
    ],
    "meshes" : [
        {
            "name" : "Plane.028",
            "primitives" : [
                {
                    "attributes" : {
                        "POSITION" : 0,
                        "NORMAL" : 1,
                        "TEXCOORD_0" : 2
                    },
                    "indices" : 3,
                    "material" : 0
                }
            ]
        },
        {
            "name" : "Plane.029",
            "primitives" : [
                {
                    "attributes" : {
                        "POSITION" : 4,
                        "NORMAL" : 5,
                        "TEXCOORD_0" : 6
                    },
                    "indices" : 7,
                    "material" : 1
                }
            ]
        },
        {
            "name" : "Plane.030",
            "primitives" : [
                {
                    "attributes" : {
                        "POSITION" : 8,
                        "NORMAL" : 9,
                        "TEXCOORD_0" : 10
                    },
                    "indices" : 7,
                    "material" : 2
                }
            ]
        }
    ],
    "textures" : [
        {
            "sampler" : 0,
            "source" : 0
        },
        {
            "sampler" : 0,
            "source" : 1
        }
    ],
    "images" : [
        {
            "bufferView" : 8,
            "mimeType" : "image/jpeg",
            "name" : "2192px-Hans_Holbein_the_Younger_-_The_Ambassadors_-_Google_Art_Project"
        },
        {
            "bufferView" : 12,
            "mimeType" : "image/jpeg",
            "name" : "Old-Paper-Canvas-Texture-Graphics-27217575-1"
        }
    ],
    "accessors" : [
        {
            "bufferView" : 0,
            "componentType" : 5126,
            "count" : 672,
            "max" : [
                1.1914550065994263,
                23.38697052001953,
                20.100242614746094
            ],
            "min" : [
                -0.006426139269024134,
                -23.38697052001953,
                -20.100242614746094
            ],
            "type" : "VEC3"
        },
        {
            "bufferView" : 1,
            "componentType" : 5126,
            "count" : 672,
            "type" : "VEC3"
        },
        {
            "bufferView" : 2,
            "componentType" : 5126,
            "count" : 672,
            "type" : "VEC2"
        },
        {
            "bufferView" : 3,
            "componentType" : 5123,
            "count" : 1008,
            "type" : "SCALAR"
        },
        {
            "bufferView" : 4,
            "componentType" : 5126,
            "count" : 4,
            "max" : [
                1,
                0,
                1
            ],
            "min" : [
                -1,
                0,
                -1
            ],
            "type" : "VEC3"
        },
        {
            "bufferView" : 5,
            "componentType" : 5126,
            "count" : 4,
            "type" : "VEC3"
        },
        {
            "bufferView" : 6,
            "componentType" : 5126,
            "count" : 4,
            "type" : "VEC2"
        },
        {
            "bufferView" : 7,
            "componentType" : 5123,
            "count" : 6,
            "type" : "SCALAR"
        },
        {
            "bufferView" : 9,
            "componentType" : 5126,
            "count" : 4,
            "max" : [
                1,
                0,
                1
            ],
            "min" : [
                -1,
                0,
                -1
            ],
            "type" : "VEC3"
        },
        {
            "bufferView" : 10,
            "componentType" : 5126,
            "count" : 4,
            "type" : "VEC3"
        },
        {
            "bufferView" : 11,
            "componentType" : 5126,
            "count" : 4,
            "type" : "VEC2"
        }
    ],
    "bufferViews" : [
        {
            "buffer" : 0,
            "byteLength" : 8064,
            "byteOffset" : 0
        },
        {
            "buffer" : 0,
            "byteLength" : 8064,
            "byteOffset" : 8064
        },
        {
            "buffer" : 0,
            "byteLength" : 5376,
            "byteOffset" : 16128
        },
        {
            "buffer" : 0,
            "byteLength" : 2016,
            "byteOffset" : 21504
        },
        {
            "buffer" : 0,
            "byteLength" : 48,
            "byteOffset" : 23520
        },
        {
            "buffer" : 0,
            "byteLength" : 48,
            "byteOffset" : 23568
        },
        {
            "buffer" : 0,
            "byteLength" : 32,
            "byteOffset" : 23616
        },
        {
            "buffer" : 0,
            "byteLength" : 12,
            "byteOffset" : 23648
        },
        {
            "buffer" : 0,
            "byteLength" : 1260201,
            "byteOffset" : 23660
        },
        {
            "buffer" : 0,
            "byteLength" : 48,
            "byteOffset" : 1283864
        },
        {
            "buffer" : 0,
            "byteLength" : 48,
            "byteOffset" : 1283912
        },
        {
            "buffer" : 0,
            "byteLength" : 32,
            "byteOffset" : 1283960
        },
        {
            "buffer" : 0,
            "byteLength" : 336536,
            "byteOffset" : 1283992
        }
    ],
    "samplers" : [
        {
            "magFilter" : 9729,
            "minFilter" : 9987
        }
    ],
    "buffers" : [
        {
            "byteLength" : 1620528,
            "uri" : "data:application/octet-stream;base64,"
        }
    ]
}
